# xmcd
#
# Track frame offsets:
# 150
# 11532
# 21617
# 36185
# 49772
# 70587
# 86110
# 96252
# 113342
# 126910
# 137475
# 148242
# 162510
# 180607
# 192102
# 207755
#
# Disc length: 2907 seconds
#
#
# Revision: 0
# Processed by: cddbd v1.4PL0 Copyright (c) Steve Scherf et al.
# Submitted via: FreeRIP 2.30 
#
DISCID=df0b5910
DTITLE=King Memphis - The Astonishing King Memphis
DYEAR=1996
DGENRE=Rockabilly
TTITLE0=Crazy Alien Chick
TTITLE1=Little Joe From Chicago
TTITLE2=C'mon Pretty Baby
TTITLE3=Lone Star
TTITLE4=Mr. Clean
TTITLE5=Let it Go
TTITLE6=She Hit Me with a Whip
TTITLE7='62 Rag Top
TTITLE8=Gonna Have a Ball
TTITLE9=Baby Baby
TTITLE10=You Gotta Pay
TTITLE11=Walkin' My Baby Back Home
TTITLE12=Big Hair
TTITLE13=Red Hot and Ready
TTITLE14=Gas Cap
TTITLE15=I'm Mad
EXTD=NERCD086
EXTT0=
EXTT1=
EXTT2=
EXTT3=
EXTT4=
EXTT5=
EXTT6=
EXTT7=
EXTT8=
EXTT9=
EXTT10=
EXTT11=
EXTT12=
EXTT13=
EXTT14=
EXTT15=
PLAYORDER=
